<?xml version="1.0" encoding="utf-8"?>
<!-- Generator: Adobe Illustrator 16.0.0, SVG Export Plug-In . SVG Version: 6.00 Build 0)  -->
<!DOCTYPE svg PUBLIC "-//W3C//DTD SVG 1.1//EN" "http://www.w3.org/Graphics/SVG/1.1/DTD/svg11.dtd">
<svg version="1.1" id="Layer_1" xmlns="http://www.w3.org/2000/svg" xmlns:xlink="http://www.w3.org/1999/xlink" x="0px" y="0px"
	 width="100px" height="100px" viewBox="0 0 100 100" enable-background="new 0 0 100 100" xml:space="preserve">
<g>
	<path fill="#545454" d="M49.26,50.621c-0.656,0-1.19-0.535-1.19-1.191c0-0.657,0.534-1.191,1.19-1.191h2.934
		c0.657,0,1.191,0.534,1.191,1.191c0,0.656-0.534,1.191-1.191,1.191H49.26z"/>
	<path fill="#545454" d="M47.793,56.488c-0.657,0-1.191-0.534-1.191-1.19c0-0.657,0.534-1.192,1.191-1.192h5.867
		c0.658,0,1.191,0.535,1.191,1.192c0,0.656-0.533,1.19-1.191,1.19H47.793z"/>
	<path fill="#545454" d="M43.393,43.286c-0.657,0-1.191-0.535-1.191-1.191v-1.743h-1.743c-0.656,0-1.191-0.534-1.191-1.19
		c0-0.657,0.535-1.191,1.191-1.191h5.868c0.656,0,1.191,0.535,1.191,1.191c0,0.656-0.535,1.19-1.191,1.19h-1.743v1.743
		C44.583,42.751,44.049,43.286,43.393,43.286z"/>
	<path fill="#545454" d="M58.062,43.286c-0.656,0-1.19-0.535-1.19-1.191v-1.743h-1.743c-0.657,0-1.19-0.534-1.19-1.19
		c0-0.657,0.533-1.191,1.19-1.191h5.868c0.656,0,1.189,0.535,1.189,1.191c0,0.656-0.533,1.19-1.19,1.19h-1.743v1.743
		C59.252,42.751,58.719,43.286,58.062,43.286z"/>
	<path fill="#2AB0A1" d="M50.727,34.562c-5.964,0-11.38-1.141-14.489-3.052l-0.233-0.144c-0.169-0.187-0.335-0.38-0.497-0.568
		c-0.508-0.594-1.032-1.206-1.707-1.674l0.021-0.084l-0.166-0.107c-3.95-2.544-6.125-5.871-6.125-9.365
		c0-7.734,10.188-13.793,23.195-13.793c13.007,0,23.195,6.059,23.195,13.793c0,3.499-2.176,6.823-6.127,9.361l-0.168,0.107
		l0.049,0.193c0.029,0.119,0.057,0.239,0.084,0.358c-0.563,0.405-1.121,0.817-1.678,1.229c-0.398,0.295-0.799,0.59-1.199,0.883
		l-0.018,0.014C61.674,33.524,56.523,34.562,50.727,34.562z M37.021,29.193c1.902,1.377,6.632,2.986,13.706,2.986
		c7.069,0,11.798-1.608,13.703-2.986l0.689-0.5H36.333L37.021,29.193z M50.727,8.157c-11.282,0-20.813,5.226-20.813,11.411
		c0,2.431,1.432,4.77,4.141,6.765l0.116,0.086l0.138-0.048c0.096-0.034,0.197-0.054,0.299-0.061l32.254,0
		c0.084,0.006,0.184,0.026,0.279,0.06l0.137,0.047l0.115-0.084c0.801-0.583,1.535-1.258,2.184-2.008l-0.068-0.064l0.068,0.063
		c1.203-1.294,1.9-2.979,1.961-4.747C71.541,13.383,62.01,8.157,50.727,8.157z M68.33,24.293c-0.318,0-0.621-0.123-0.848-0.346
		c-0.098-0.108-0.184-0.245-0.246-0.394c-0.129-0.289-0.129-0.613-0.002-0.896c0.174-0.455,0.604-0.752,1.074-0.752
		c0.086,0,0.172,0.01,0.254,0.028c0.076,0.015,0.141,0.036,0.199,0.066l0.018,0.009l0.02,0.006c0.07,0.024,0.135,0.057,0.195,0.099
		c0.063,0.043,0.125,0.092,0.182,0.144c0.105,0.117,0.189,0.25,0.25,0.395c0.127,0.288,0.127,0.613,0.002,0.896
		c-0.064,0.151-0.15,0.286-0.256,0.404v0C68.945,24.172,68.646,24.293,68.33,24.293z"/>
	<g>
		<g>
			<path fill="#2AB0A1" d="M37.099,19.127c-0.14-0.132-0.305-0.237-0.484-0.308c-0.354-0.162-0.761-0.162-1.115,0
				c-0.178,0.074-0.341,0.178-0.484,0.308c-0.268,0.281-0.42,0.653-0.425,1.042c-0.005,0.192,0.034,0.384,0.117,0.558
				c0.074,0.177,0.178,0.341,0.308,0.484c0.143,0.129,0.306,0.234,0.484,0.308c0.546,0.234,1.179,0.112,1.599-0.308
				c0.129-0.143,0.233-0.307,0.309-0.484c0.075-0.177,0.115-0.366,0.117-0.558C37.52,19.78,37.367,19.408,37.099,19.127z"/>
			<path fill="#2AB0A1" d="M36.072,21.359c-0.16,0-0.315-0.032-0.463-0.095c-0.152-0.064-0.289-0.15-0.407-0.258
				c-0.09-0.102-0.177-0.238-0.24-0.387c-0.068-0.146-0.1-0.294-0.096-0.443c0.004-0.324,0.128-0.627,0.349-0.859
				c0.106-0.095,0.242-0.182,0.391-0.244c0.148-0.068,0.297-0.1,0.451-0.1s0.302,0.032,0.442,0.096
				c0.162,0.065,0.295,0.149,0.41,0.258c0.21,0.221,0.335,0.525,0.339,0.845c-0.002,0.149-0.034,0.301-0.096,0.445
				c-0.063,0.151-0.15,0.288-0.259,0.407C36.682,21.237,36.387,21.359,36.072,21.359L36.072,21.359z"/>
		</g>
	</g>
	<g>
		<g>
			<path fill="#2AB0A1" d="M42.953,19.127c-0.064-0.07-0.138-0.129-0.221-0.176c-0.074-0.059-0.159-0.103-0.249-0.132
				c-0.088-0.044-0.182-0.075-0.279-0.089c-0.479-0.096-0.974,0.053-1.319,0.396c-0.269,0.281-0.42,0.653-0.426,1.042
				c-0.008,0.802,0.636,1.459,1.438,1.467c0.01,0,0.02,0,0.028,0c0.808-0.006,1.461-0.659,1.467-1.467
				C43.388,19.777,43.23,19.403,42.953,19.127z"/>
			<path fill="#2AB0A1" d="M41.897,21.359c-0.646-0.006-1.169-0.539-1.162-1.188c0.004-0.319,0.128-0.623,0.348-0.854
				c0.22-0.217,0.517-0.34,0.833-0.34c0.078,0,0.156,0.008,0.232,0.023c0.082,0.012,0.148,0.033,0.209,0.064l0.019,0.01l0.021,0.007
				c0.06,0.019,0.115,0.048,0.164,0.087l0.016,0.012l0.018,0.01c0.057,0.033,0.108,0.074,0.154,0.123
				c0.236,0.235,0.363,0.537,0.367,0.858c-0.004,0.648-0.539,1.183-1.191,1.188H41.897z"/>
		</g>
	</g>
	<g>
		<g>
			<path fill="#2AB0A1" d="M54.703,19.127c-0.072-0.066-0.15-0.125-0.235-0.176c-0.075-0.059-0.159-0.103-0.249-0.132
				c-0.088-0.044-0.182-0.075-0.28-0.089c-0.479-0.096-0.974,0.053-1.319,0.396c-0.268,0.281-0.42,0.653-0.426,1.042
				c-0.004,0.39,0.149,0.765,0.426,1.042c0.144,0.129,0.307,0.234,0.484,0.308c0.738,0.316,1.591-0.026,1.907-0.763
				c0.079-0.185,0.118-0.385,0.117-0.586C55.121,19.78,54.971,19.408,54.703,19.127z"/>
			<path fill="#2AB0A1" d="M53.674,21.359c-0.158,0-0.314-0.032-0.462-0.095c-0.151-0.063-0.287-0.15-0.407-0.259
				c-0.213-0.213-0.338-0.521-0.335-0.834c0.004-0.319,0.128-0.623,0.35-0.854c0.219-0.218,0.517-0.34,0.832-0.34
				c0.078,0,0.156,0.008,0.233,0.023c0.082,0.012,0.147,0.033,0.209,0.064l0.019,0.01l0.021,0.007
				c0.06,0.019,0.114,0.048,0.164,0.087l0.013,0.01l0.016,0.009c0.067,0.041,0.131,0.088,0.189,0.142
				c0.208,0.219,0.331,0.523,0.336,0.843c0.002,0.163-0.029,0.323-0.094,0.474C54.571,21.079,54.146,21.359,53.674,21.359
				L53.674,21.359z"/>
		</g>
	</g>
	<g>
		<g>
			<path fill="#2AB0A1" d="M47.802,18.693c-0.394-0.002-0.772,0.154-1.05,0.434c-0.567,0.578-0.567,1.504,0,2.083
				c0.276,0.276,0.651,0.429,1.042,0.425c0.803,0.008,1.459-0.636,1.466-1.438c0.001-0.01,0.001-0.019,0-0.028
				C49.265,19.358,48.612,18.697,47.802,18.693z"/>
			<path fill="#2AB0A1" d="M47.779,21.359c-0.314,0-0.609-0.123-0.832-0.345c-0.457-0.466-0.457-1.227,0.002-1.695
				c0.221-0.223,0.529-0.351,0.845-0.351c0.663,0.004,1.195,0.541,1.191,1.198c-0.006,0.669-0.535,1.192-1.177,1.192H47.779z"/>
		</g>
	</g>
	<g>
		<g>
			<path fill="#2AB0A1" d="M60.57,19.127c-0.352-0.346-0.852-0.495-1.335-0.397c-0.092,0.017-0.181,0.047-0.265,0.089
				c-0.093,0.032-0.183,0.076-0.265,0.132c-0.076,0.055-0.149,0.113-0.219,0.176c-0.269,0.281-0.421,0.653-0.426,1.042
				c-0.008,0.802,0.636,1.458,1.438,1.467c0.01,0,0.019,0,0.029,0c0.191-0.003,0.38-0.042,0.557-0.118
				c0.178-0.075,0.341-0.179,0.484-0.308c0.273-0.278,0.426-0.652,0.426-1.041C60.99,19.78,60.838,19.408,60.57,19.127z"/>
			<path fill="#2AB0A1" d="M59.5,21.359c-0.312-0.003-0.605-0.128-0.826-0.353c-0.22-0.225-0.339-0.521-0.336-0.835
				c0.004-0.319,0.128-0.623,0.349-0.854c0.048-0.042,0.112-0.094,0.18-0.142c0.057-0.039,0.124-0.072,0.194-0.096l0.018-0.006
				l0.019-0.009c0.06-0.03,0.122-0.052,0.188-0.063c0.085-0.018,0.165-0.025,0.245-0.025c0.319,0,0.621,0.123,0.848,0.347
				c0.214,0.226,0.338,0.529,0.342,0.849c0.002,0.316-0.122,0.617-0.346,0.844c-0.108,0.098-0.244,0.185-0.395,0.247
				c-0.145,0.062-0.296,0.094-0.452,0.096H59.5z"/>
		</g>
	</g>
	<g>
		<g>
			<path fill="#2AB0A1" d="M65.404,18.693c-0.395-0.002-0.771,0.154-1.051,0.434c-0.27,0.279-0.422,0.652-0.424,1.042
				c-0.004,0.39,0.148,0.766,0.424,1.042c0.145,0.129,0.309,0.234,0.486,0.308c0.176,0.075,0.365,0.115,0.557,0.117
				c0.803,0.008,1.459-0.636,1.467-1.438c0-0.01,0-0.019,0-0.028C66.867,19.358,66.215,18.697,65.404,18.693z"/>
			<path fill="#2AB0A1" d="M65.398,21.359c-0.154-0.002-0.307-0.034-0.451-0.095c-0.15-0.063-0.287-0.15-0.406-0.258
				c-0.213-0.213-0.34-0.521-0.336-0.834c0.002-0.321,0.125-0.623,0.348-0.853c0.223-0.225,0.523-0.35,0.844-0.35
				c0.664,0.004,1.195,0.541,1.191,1.198v0.03c-0.006,0.64-0.535,1.163-1.178,1.163H65.398z"/>
		</g>
	</g>
	<g>
		<g>
			<path fill="#2AB0A1" d="M34.151,22.061c-0.345-0.348-0.842-0.497-1.32-0.396c-0.092,0.016-0.181,0.046-0.264,0.089
				c-0.093,0.032-0.183,0.076-0.265,0.131c-0.077,0.055-0.149,0.113-0.219,0.176c-0.132,0.141-0.237,0.305-0.308,0.484
				c-0.075,0.176-0.115,0.366-0.117,0.558c-0.008,0.802,0.636,1.459,1.438,1.467c0.01,0,0.018,0,0.028,0
				c0.808-0.006,1.461-0.659,1.467-1.467C34.586,22.71,34.429,22.337,34.151,22.061z"/>
			<path fill="#2AB0A1" d="M33.096,24.293c-0.312-0.003-0.606-0.128-0.826-0.353s-0.339-0.521-0.337-0.835
				c0.002-0.156,0.034-0.308,0.096-0.452c0.061-0.154,0.146-0.288,0.255-0.403c0.046-0.041,0.11-0.093,0.178-0.141
				c0.057-0.039,0.124-0.072,0.194-0.096l0.019-0.006l0.018-0.009c0.059-0.03,0.123-0.052,0.188-0.063
				c0.085-0.018,0.166-0.026,0.246-0.026c0.31,0,0.612,0.126,0.829,0.346c0.229,0.228,0.356,0.529,0.36,0.851
				c-0.005,0.648-0.54,1.183-1.192,1.188H33.096z"/>
		</g>
	</g>
	<g>
		<g>
			<path fill="#2AB0A1" d="M40.341,22.545c-0.074-0.178-0.179-0.342-0.309-0.484c-0.587-0.543-1.495-0.543-2.083,0
				c-0.132,0.14-0.237,0.305-0.308,0.484c-0.083,0.174-0.123,0.365-0.117,0.557c-0.001,0.39,0.151,0.764,0.425,1.042
				c0.579,0.567,1.505,0.567,2.083,0c0.273-0.278,0.426-0.652,0.426-1.042C40.456,22.911,40.416,22.721,40.341,22.545z"/>
			<path fill="#2AB0A1" d="M38.992,24.293c-0.319,0-0.621-0.123-0.849-0.346c-0.22-0.224-0.343-0.525-0.342-0.844
				c-0.004-0.157,0.028-0.306,0.091-0.439c0.065-0.165,0.15-0.298,0.259-0.414c0.22-0.202,0.524-0.321,0.841-0.321
				c0.318,0,0.621,0.119,0.854,0.334c0.092,0.103,0.178,0.239,0.241,0.387c0.062,0.146,0.095,0.299,0.096,0.455
				c0,0.316-0.123,0.617-0.346,0.845C39.612,24.17,39.311,24.293,38.992,24.293z"/>
		</g>
	</g>
	<g>
		<g>
			<path fill="#2AB0A1" d="M45.901,22.061c-0.073-0.066-0.151-0.125-0.235-0.176c-0.075-0.058-0.159-0.103-0.25-0.131
				c-0.088-0.045-0.182-0.075-0.279-0.089c-0.478-0.093-0.972,0.055-1.319,0.397c-0.133,0.14-0.238,0.304-0.308,0.484
				c-0.075,0.176-0.115,0.365-0.117,0.557c-0.004,0.39,0.149,0.766,0.425,1.042c0.57,0.575,1.499,0.579,2.074,0.009
				c0.28-0.278,0.437-0.656,0.434-1.05C46.321,22.714,46.168,22.342,45.901,22.061z"/>
			<path fill="#2AB0A1" d="M44.859,24.302c-0.32,0-0.62-0.125-0.845-0.353c-0.223-0.223-0.348-0.531-0.345-0.845
				c0.001-0.155,0.034-0.308,0.095-0.452c0.062-0.154,0.146-0.288,0.255-0.402c0.219-0.216,0.518-0.338,0.835-0.338
				c0.077,0,0.154,0.007,0.23,0.022c0.081,0.012,0.146,0.033,0.208,0.064l0.02,0.01l0.021,0.007c0.06,0.02,0.115,0.048,0.164,0.087
				l0.013,0.01l0.015,0.008c0.068,0.041,0.131,0.089,0.19,0.143c0.208,0.219,0.332,0.523,0.337,0.842
				c0.001,0.316-0.127,0.626-0.353,0.85C45.473,24.179,45.175,24.302,44.859,24.302L44.859,24.302z"/>
		</g>
	</g>
	<g>
		<g>
			<path fill="#2AB0A1" d="M52.076,22.545c-0.074-0.178-0.178-0.342-0.308-0.484c-0.144-0.129-0.306-0.233-0.485-0.308
				c-0.545-0.231-1.176-0.109-1.598,0.308c-0.132,0.141-0.237,0.305-0.309,0.484c-0.082,0.174-0.123,0.365-0.117,0.557
				c0,0.39,0.152,0.764,0.426,1.042c0.565,0.577,1.492,0.587,2.069,0.021C52.186,23.743,52.313,23.1,52.076,22.545z"/>
			<path fill="#2AB0A1" d="M50.731,24.307c-0.322,0-0.624-0.126-0.849-0.356c-0.224-0.228-0.348-0.529-0.346-0.848
				c-0.004-0.157,0.027-0.306,0.09-0.44c0.066-0.164,0.15-0.298,0.26-0.413c0.218-0.215,0.514-0.337,0.829-0.337
				c0.159,0,0.314,0.032,0.462,0.094c0.149,0.063,0.286,0.149,0.406,0.259c0.09,0.101,0.177,0.237,0.239,0.386
				c0.194,0.456,0.092,0.971-0.261,1.316C51.338,24.187,51.043,24.307,50.731,24.307L50.731,24.307z"/>
		</g>
	</g>
	<g>
		<g>
			<path fill="#2AB0A1" d="M56.596,21.635c-0.811,0-1.468,0.657-1.468,1.467c-0.004,0.391,0.149,0.766,0.426,1.042
				c0.57,0.575,1.499,0.579,2.074,0.009c0.28-0.278,0.437-0.656,0.435-1.05C58.062,22.292,57.405,21.635,56.596,21.635z"/>
			<path fill="#2AB0A1" d="M56.596,24.302c-0.32,0-0.621-0.125-0.846-0.353c-0.225-0.223-0.35-0.53-0.346-0.844
				c0-0.659,0.533-1.194,1.191-1.194c0.656,0,1.189,0.535,1.189,1.191c0.003,0.319-0.125,0.63-0.352,0.854
				C57.209,24.179,56.911,24.302,56.596,24.302L56.596,24.302z"/>
		</g>
	</g>
	<g>
		<g>
			<path fill="#2AB0A1" d="M62.471,21.627c-0.395-0.002-0.771,0.154-1.05,0.434c-0.271,0.279-0.423,0.652-0.425,1.042
				c-0.005,0.391,0.148,0.766,0.425,1.042c0.571,0.575,1.499,0.579,2.075,0.009c0.279-0.278,0.436-0.656,0.434-1.05
				C63.934,22.292,63.281,21.631,62.471,21.627z"/>
			<path fill="#2AB0A1" d="M62.463,24.302c-0.32,0-0.621-0.125-0.846-0.353c-0.223-0.223-0.349-0.53-0.346-0.844
				c0.002-0.321,0.125-0.623,0.348-0.852c0.221-0.222,0.529-0.35,0.844-0.35c0.664,0.003,1.195,0.541,1.191,1.198
				c0.002,0.321-0.127,0.631-0.354,0.855C63.078,24.179,62.779,24.302,62.463,24.302L62.463,24.302z"/>
		</g>
	</g>
	<path fill="none" d="M53.404,70.146l6.316-5.416c0.011-1.283,0.093-2.565,0.242-3.84c0.016-0.135,0.043-0.273,0.06-0.408
		c-0.887,0.822-1.827,1.656-2.884,2.514c-3.74,3.027-9.088,3.027-12.825-0.002c-1.058-0.857-1.997-1.691-2.883-2.514
		c0.017,0.138,0.044,0.281,0.059,0.418c0.151,1.271,0.233,2.551,0.244,3.832l6.327,5.424c0.887-0.107,1.788-0.168,2.705-0.168
		C51.658,69.986,52.537,70.045,53.404,70.146z"/>
	<path fill="none" d="M42.008,64.602c-0.014-1.133-0.083-2.276-0.207-3.406c0.807,0.734,1.563,1.383,2.339,2.012
		c1.857,1.506,4.196,2.334,6.587,2.334h0.001c2.389,0,4.727-0.828,6.583-2.33c0.775-0.627,1.53-1.277,2.341-2.014
		c-0.122,1.128-0.191,2.271-0.206,3.404l-6.13,5.258c-0.872-0.1-1.729-0.148-2.55-0.148c-0.854,0-1.711,0.051-2.617,0.156
		L42.008,64.602z"/>
	<path fill="none" d="M72.951,90.508h8.963c0.471,0.004,0.912-0.221,1.188-0.602c0.281-0.379,0.361-0.869,0.217-1.316l-1.938-6.041
		c-0.754-1.973-1.916-3.766-3.408-5.262c-0.131-0.131-0.498-0.434-3.41-2.545c-0.463-0.262-0.943-0.496-1.436-0.701
		c-1.816-0.744-3.76-1.131-5.723-1.135L64.9,75.049C69.441,78.787,72.471,84.289,72.951,90.508z"/>
	<path fill="none" d="M73.205,90.23c-0.521-5.863-3.377-11.367-7.879-15.184l2.18-1.865c1.9,0.016,3.756,0.391,5.518,1.115
		c0.473,0.197,0.941,0.426,1.391,0.678c2.889,2.096,3.25,2.393,3.361,2.508c1.477,1.479,2.602,3.215,3.35,5.164l1.93,6.027
		c0.117,0.363,0.053,0.762-0.174,1.068c-0.223,0.307-0.58,0.488-0.959,0.488H73.205z"/>
	<path fill="none" d="M40.534,67.568l-3.784,3.787l2.297,1.965c1.661-1.031,3.467-1.846,5.381-2.414L40.534,67.568z"/>
	<path fill="none" d="M37.156,71.338l3.393-3.393l3.32,2.846c-1.679,0.539-3.29,1.273-4.795,2.189L37.156,71.338z"/>
	<path fill="none" d="M36.591,75.08l-2.542-2.174c-1.965,0.004-3.91,0.391-5.728,1.137c-0.49,0.203-0.968,0.438-1.431,0.699
		c-2.911,2.111-3.279,2.414-3.405,2.541c-1.513,1.512-2.685,3.33-3.437,5.332l-1.914,5.977c-0.144,0.447-0.063,0.938,0.216,1.314
		c0.276,0.381,0.719,0.605,1.189,0.602l0,0h9.038C29.058,84.307,32.071,78.818,36.591,75.08z"/>
	<path fill="none" d="M19.541,90.232c-0.387-0.002-0.744-0.184-0.965-0.488c-0.228-0.309-0.293-0.705-0.177-1.066l1.914-5.979
		c0.739-1.967,1.874-3.727,3.37-5.221c0.137-0.139,0.76-0.617,3.359-2.504c0.448-0.252,0.915-0.48,1.388-0.678
		c1.761-0.725,3.618-1.1,5.52-1.115l2.217,1.896c-4.477,3.816-7.319,9.307-7.84,15.154H19.541z"/>
	<path fill="none" d="M64.705,71.355l-3.785-3.787l-3.875,3.322c1.918,0.563,3.729,1.375,5.395,2.402L64.705,71.355z"/>
	<path fill="none" d="M62.412,72.953c-1.508-0.912-3.121-1.645-4.807-2.18l3.299-2.83l3.395,3.395L62.412,72.953z"/>
	<path fill="none" d="M67.326,46.445c0.365-0.636,1.004-2.692,1.004-7.284c0.055-0.737-0.049-1.477-0.303-2.17
		c-0.176,0.073-0.342,0.169-0.492,0.287c-0.641,2.784-0.922,5.639-0.836,8.494C66.885,46.017,67.096,46.243,67.326,46.445z"/>
	<path fill="none" d="M67.24,45.981c-0.094-0.098-0.184-0.201-0.268-0.308c-0.074-2.766,0.197-5.536,0.809-8.235
		c0.027-0.02,0.057-0.038,0.084-0.056c0.17,0.571,0.234,1.161,0.189,1.758C68.055,43.364,67.527,45.261,67.24,45.981z"/>
	<path fill="none" d="M33.427,36.991c-0.253,0.693-0.357,1.434-0.303,2.17c0,4.592,0.639,6.648,1.004,7.284
		c0.232-0.203,0.442-0.429,0.628-0.675c0.085-2.854-0.196-5.708-0.836-8.491C33.769,37.163,33.604,37.065,33.427,36.991z"/>
	<path fill="none" d="M34.214,45.981c-0.286-0.719-0.814-2.613-0.814-6.82c-0.045-0.614,0.019-1.206,0.188-1.777
		c0.028,0.018,0.058,0.037,0.085,0.057c0.612,2.698,0.885,5.466,0.811,8.232C34.398,45.78,34.31,45.883,34.214,45.981z"/>
	<path fill="#545454" d="M73.281,93.166c0.014-0.314,0.02-0.623,0.02-0.92c0-0.451-0.018-0.932-0.053-1.463h8.666
		c0.563,0,1.088-0.268,1.412-0.715c0.33-0.447,0.426-1.033,0.254-1.564l-1.936-6.039c-0.779-2.037-1.947-3.84-3.477-5.373
		c-0.143-0.145-0.502-0.439-3.443-2.572l-0.012-0.01l-0.014-0.008c-0.473-0.266-0.965-0.508-1.467-0.717
		c-1.859-0.764-3.82-1.152-5.828-1.156h-0.102l-2.408,2.061c-0.629-0.506-1.297-0.986-1.99-1.43l2.205-1.889l-4.176-4.18
		l-3.955,3.393c-0.956-0.275-1.938-0.484-2.927-0.629l5.943-5.096l0.001-0.127c0.012-1.268,0.094-2.549,0.242-3.811
		c0.008-0.069,0.019-0.139,0.029-0.211c0.01-0.065,0.021-0.131,0.028-0.195l0.095-0.752l-0.556,0.516
		c-1.021,0.947-1.933,1.742-2.87,2.502c-1.759,1.424-3.975,2.209-6.237,2.209c-2.265,0-4.481-0.785-6.24-2.211
		c-0.943-0.766-1.855-1.559-2.869-2.501l-0.555-0.515l0.093,0.75c0.008,0.068,0.019,0.136,0.029,0.204
		c0.01,0.071,0.022,0.143,0.03,0.212c0.149,1.258,0.231,2.537,0.242,3.803l0.001,0.125l5.955,5.107
		c-0.99,0.146-1.969,0.359-2.919,0.635l-3.975-3.406l-4.176,4.178l2.239,1.916c-0.696,0.447-1.362,0.93-1.988,1.436l-2.444-2.094
		h-0.103c-2.009,0.004-3.971,0.395-5.832,1.158c-0.5,0.207-0.992,0.449-1.462,0.715l-0.014,0.008l-0.012,0.01
		c-2.943,2.135-3.299,2.426-3.439,2.568c-1.55,1.551-2.728,3.377-3.499,5.432l-1.918,5.988c-0.171,0.531-0.074,1.115,0.257,1.563
		c0.323,0.445,0.848,0.713,1.401,0.713l8.751,0.002c-0.036,0.529-0.054,1.01-0.054,1.461c0,0.297,0.006,0.605,0.02,0.92h-8.708
		c-0.428,0-0.848-0.064-1.253-0.193c-1.051-0.336-1.909-1.059-2.417-2.039c-0.507-0.979-0.602-2.098-0.268-3.148l1.938-6.047
		c0.871-2.354,2.277-4.547,4.061-6.33c1.183-1.023,2.461-1.988,3.786-2.859l0.136-0.088c0.57-0.326,1.178-0.625,1.793-0.879
		c2.124-0.871,4.365-1.318,6.663-1.33l0.113-0.002l4.99-4.988v-0.113c0.004-1.314-0.075-2.643-0.233-3.945
		c-0.183-1.561-0.448-3.127-0.788-4.657l-0.016-0.071l-0.05-0.056c-1.765-1.933-2.874-4.431-3.122-7.036l-0.031-0.332l-0.32,0.093
		c-0.163,0.047-0.333,0.076-0.505,0.084c-0.224-0.001-0.459-0.04-0.684-0.116c-0.362-0.121-1.033-0.345-1.652-1.613
		c-0.807-1.655-1.217-4.46-1.217-8.338c0-0.944,0-3.817,1.861-4.652c0.287-0.125,0.593-0.189,0.909-0.189h0.316l-0.035-0.313
		c-0.182-1.328-0.152-2.67,0.093-3.996c0.492,0.395,0.904,0.876,1.336,1.38c0.267,0.31,0.541,0.63,0.836,0.929
		c0.009,0.99,0.144,1.976,0.4,2.93c1.164,4.275,1.536,8.677,1.106,13.085c-0.026,0.304-0.04,0.641-0.04,0.977
		c0,2.926,3.104,7.051,8.741,11.618c1.335,1.084,3.018,1.682,4.738,1.682c1.717,0,3.399-0.597,4.733-1.68
		c5.639-4.568,8.744-8.693,8.744-11.62c0-0.335-0.014-0.666-0.039-0.982c-0.43-4.416-0.057-8.82,1.109-13.095
		c0.26-0.97,0.393-1.968,0.396-2.967c0-0.041-0.002-0.081-0.004-0.12c0.291-0.213,0.58-0.427,0.871-0.642
		c0.459-0.34,0.92-0.68,1.383-1.016c0.17,1.172,0.174,2.353,0.016,3.517l-0.043,0.314h0.316c0.32,0,0.629,0.064,0.918,0.19
		c1.859,0.834,1.859,3.707,1.859,4.65c0,3.879-0.41,6.685-1.217,8.339c-0.617,1.269-1.289,1.492-1.65,1.612
		c-0.227,0.077-0.463,0.116-0.699,0.116c-0.158-0.008-0.328-0.036-0.492-0.084l-0.32-0.092l-0.031,0.332
		c-0.248,2.605-1.355,5.104-3.121,7.037l-0.049,0.055l-0.016,0.071c-0.34,1.528-0.605,3.093-0.789,4.649
		c-0.158,1.309-0.236,2.639-0.232,3.953v0.113l4.99,4.99h0.113c2.295,0.012,4.535,0.459,6.658,1.33
		c0.621,0.256,1.229,0.555,1.811,0.887l0.125,0.082c1.322,0.867,2.604,1.836,3.803,2.875c1.773,1.779,3.133,3.889,4.023,6.26
		l1.955,6.098c0.129,0.406,0.195,0.83,0.195,1.256c-0.002,2.275-1.854,4.127-4.129,4.127H73.281z M67.922,36.736
		c-0.199,0.083-0.387,0.191-0.557,0.324l-0.078,0.061l-0.021,0.095c-0.645,2.806-0.928,5.687-0.844,8.563l0.004,0.089l0.053,0.07
		c0.195,0.259,0.42,0.5,0.666,0.715l0.254,0.223l0.166-0.293c0.244-0.425,1.041-2.217,1.041-7.421
		c0.057-0.761-0.051-1.53-0.32-2.265l-0.098-0.271L67.922,36.736z M33.168,36.896c-0.27,0.736-0.377,1.505-0.319,2.285
		c-0.001,5.184,0.795,6.977,1.04,7.401l0.167,0.293l0.253-0.223c0.245-0.215,0.469-0.456,0.666-0.715l0.053-0.07l0.003-0.088
		c0.085-2.876-0.199-5.756-0.844-8.561l-0.022-0.096l-0.077-0.06c-0.17-0.132-0.356-0.242-0.554-0.326l-0.267-0.113L33.168,36.896z"
		/>
	<path d="M49.261,93.238c-0.127,0-0.252-0.02-0.373-0.059l-0.042-0.014H28.8c-0.013-0.316-0.02-0.623-0.02-0.92
		c0-0.447,0.018-0.93,0.055-1.461h0.221l0.017-0.26c0.344-5.227,2.577-10.143,6.288-13.842c0.452-0.453,0.946-0.902,1.467-1.338
		l0.25-0.209l-0.058-0.049c0.629-0.504,1.3-0.982,2-1.426l0.073,0.063l0.172-0.105c1.652-1.033,3.439-1.834,5.309-2.387l0.486-0.145
		l-0.064-0.057c0.97-0.262,1.968-0.459,2.975-0.588l0.071,0.063l0.121-0.016c0.847-0.102,1.708-0.152,2.56-0.152
		c0.854,0,1.717,0.053,2.564,0.152l0.119,0.016l0.084-0.07c1.004,0.123,2.005,0.32,2.98,0.58l-0.081,0.072l0.485,0.145
		c1.871,0.551,3.656,1.354,5.311,2.387l0.17,0.107l0.107-0.092c0.697,0.438,1.369,0.916,2.004,1.42l-0.094,0.08l0.25,0.211
		c0.523,0.438,1.018,0.887,1.467,1.336c3.711,3.701,5.943,8.617,6.289,13.844l0.016,0.258h0.297
		c0.037,0.533,0.057,1.016,0.057,1.463c0,0.297-0.008,0.604-0.021,0.92H52.58l-0.043,0.016c-0.111,0.037-0.226,0.057-0.344,0.057
		H49.261z M50.223,90.785h1.01l2.59-12.979c0.01-0.02,0.021-0.047,0.029-0.078c0.007-0.027,0.009-0.051,0.011-0.068
		c0.019-0.039,0.04-0.078,0.063-0.115l0.014-0.02l0.009-0.023c0.03-0.074,0.068-0.145,0.113-0.211
		c0.03-0.035,0.082-0.086,0.137-0.131l0.015-0.014l0.014-0.016c0.089-0.1,0.204-0.17,0.332-0.203l0.019-0.006l0.019-0.008
		c0.069-0.029,0.142-0.053,0.216-0.068c0.034-0.002,0.068-0.004,0.104-0.004s0.07,0.002,0.105,0.004l0.025,0.002l0.025-0.002
		c0.032-0.002,0.065-0.004,0.098-0.004c0.016,0,0.029,0,0.045,0c0.018,0.008,0.04,0.018,0.066,0.023
		c0.033,0.008,0.064,0.01,0.084,0.01c1.048,0.316,2.067,0.748,3.028,1.281c4.581,2.539,7.616,7.166,8.12,12.379l0.023,0.248h3.5
		l-0.023-0.297c-0.357-4.578-2.348-8.883-5.604-12.121c-0.803-0.803-1.684-1.543-2.617-2.199c-3.266-2.264-7.092-3.459-11.064-3.459
		c-3.974,0-7.801,1.197-11.066,3.461c-0.931,0.654-1.81,1.395-2.615,2.199c-3.256,3.236-5.247,7.541-5.604,12.119l-0.023,0.297h3.5
		l0.024-0.248c0.505-5.217,3.543-9.846,8.127-12.383c0.958-0.531,1.974-0.961,3.022-1.277c0.023,0,0.052-0.002,0.085-0.01
		c0.026-0.008,0.048-0.016,0.066-0.023c0.015,0,0.028,0,0.042,0c0.034,0,0.067,0.002,0.1,0.004l0.025,0.002l0.024-0.002
		c0.035-0.004,0.07-0.006,0.105-0.006c0.035,0,0.069,0.002,0.104,0.006c0.073,0.016,0.143,0.037,0.211,0.066l0.018,0.008l0.02,0.006
		c0.128,0.033,0.243,0.104,0.332,0.201l0.014,0.016l0.016,0.014c0.053,0.043,0.103,0.092,0.147,0.145
		c0.042,0.063,0.077,0.131,0.105,0.201l0.009,0.023l0.014,0.02c0.024,0.037,0.044,0.074,0.064,0.115
		c0,0.018,0.003,0.039,0.009,0.064c0.009,0.037,0.021,0.064,0.032,0.084L50.223,90.785z M53.66,90.783h10.492l-0.035-0.309
		c-0.516-4.305-3.084-8.129-6.877-10.232c-0.352-0.195-0.717-0.361-1.031-0.504l-0.315-0.141L53.66,90.783z M45.245,79.738
		c-0.313,0.141-0.675,0.305-1.024,0.5c-3.795,2.102-6.369,5.928-6.883,10.236l-0.037,0.309h10.491l-2.232-11.186L45.245,79.738z"/>
	<path fill="#2AB0A1" d="M49.261,93.238c-0.127,0-0.252-0.02-0.373-0.059l-0.042-0.014H28.8c-0.013-0.316-0.02-0.623-0.02-0.92
		c0-0.447,0.018-0.93,0.055-1.461h0.221l0.017-0.26c0.344-5.227,2.577-10.143,6.288-13.842c0.452-0.453,0.946-0.902,1.467-1.338
		l0.25-0.209l-0.058-0.049c0.629-0.504,1.3-0.982,2-1.426l0.073,0.063l0.172-0.105c1.652-1.033,3.439-1.834,5.309-2.387l0.486-0.145
		l-0.064-0.057c0.97-0.262,1.968-0.459,2.975-0.588l0.071,0.063l0.121-0.016c0.847-0.102,1.708-0.152,2.56-0.152
		c0.854,0,1.717,0.053,2.564,0.152l0.119,0.016l0.084-0.07c1.004,0.123,2.005,0.32,2.98,0.58l-0.081,0.072l0.485,0.145
		c1.871,0.551,3.656,1.354,5.311,2.387l0.17,0.107l0.107-0.092c0.697,0.438,1.369,0.916,2.004,1.42l-0.094,0.08l0.25,0.211
		c0.523,0.438,1.018,0.887,1.467,1.336c3.711,3.701,5.943,8.617,6.289,13.844l0.016,0.258h0.297
		c0.037,0.533,0.057,1.016,0.057,1.463c0,0.297-0.008,0.604-0.021,0.92H52.58l-0.043,0.016c-0.111,0.037-0.226,0.057-0.344,0.057
		H49.261z M50.223,90.785h1.01l2.59-12.979c0.01-0.02,0.021-0.047,0.029-0.078c0.007-0.027,0.009-0.051,0.011-0.068
		c0.019-0.039,0.04-0.078,0.063-0.115l0.014-0.02l0.009-0.023c0.03-0.074,0.068-0.145,0.113-0.211
		c0.03-0.035,0.082-0.086,0.137-0.131l0.015-0.014l0.014-0.016c0.089-0.1,0.204-0.17,0.332-0.203l0.019-0.006l0.019-0.008
		c0.069-0.029,0.142-0.053,0.216-0.068c0.034-0.002,0.068-0.004,0.104-0.004s0.07,0.002,0.105,0.004l0.025,0.002l0.025-0.002
		c0.032-0.002,0.065-0.004,0.098-0.004c0.016,0,0.029,0,0.045,0c0.018,0.008,0.04,0.018,0.066,0.023
		c0.033,0.008,0.064,0.01,0.084,0.01c1.048,0.316,2.067,0.748,3.028,1.281c4.581,2.539,7.616,7.166,8.12,12.379l0.023,0.248h3.5
		l-0.023-0.297c-0.357-4.578-2.348-8.883-5.604-12.121c-0.803-0.803-1.684-1.543-2.617-2.199c-3.266-2.264-7.092-3.459-11.064-3.459
		c-3.974,0-7.801,1.197-11.066,3.461c-0.931,0.654-1.81,1.395-2.615,2.199c-3.256,3.236-5.247,7.541-5.604,12.119l-0.023,0.297h3.5
		l0.024-0.248c0.505-5.217,3.543-9.846,8.127-12.383c0.958-0.531,1.974-0.961,3.022-1.277c0.023,0,0.052-0.002,0.085-0.01
		c0.026-0.008,0.048-0.016,0.066-0.023c0.015,0,0.028,0,0.042,0c0.034,0,0.067,0.002,0.1,0.004l0.025,0.002l0.024-0.002
		c0.035-0.004,0.07-0.006,0.105-0.006c0.035,0,0.069,0.002,0.104,0.006c0.073,0.016,0.143,0.037,0.211,0.066l0.018,0.008l0.02,0.006
		c0.128,0.033,0.243,0.104,0.332,0.201l0.014,0.016l0.016,0.014c0.053,0.043,0.103,0.092,0.147,0.145
		c0.042,0.063,0.077,0.131,0.105,0.201l0.009,0.023l0.014,0.02c0.024,0.037,0.044,0.074,0.064,0.115
		c0,0.018,0.003,0.039,0.009,0.064c0.009,0.037,0.021,0.064,0.032,0.084L50.223,90.785z M53.66,90.783h10.492l-0.035-0.309
		c-0.516-4.305-3.084-8.129-6.877-10.232c-0.352-0.195-0.717-0.361-1.031-0.504l-0.315-0.141L53.66,90.783z M45.245,79.738
		c-0.313,0.141-0.675,0.305-1.024,0.5c-3.795,2.102-6.369,5.928-6.883,10.236l-0.037,0.309h10.491l-2.232-11.186L45.245,79.738z"/>
</g>
</svg>
