<?xml version="1.0" encoding="utf-8"?>
<!-- Generator: Adobe Illustrator 16.0.0, SVG Export Plug-In . SVG Version: 6.00 Build 0)  -->
<!DOCTYPE svg PUBLIC "-//W3C//DTD SVG 1.1//EN" "http://www.w3.org/Graphics/SVG/1.1/DTD/svg11.dtd">
<svg version="1.1" id="Layer_1" xmlns="http://www.w3.org/2000/svg" xmlns:xlink="http://www.w3.org/1999/xlink" x="0px" y="0px"
	 width="100px" height="100px" viewBox="0 0 100 100" enable-background="new 0 0 100 100" xml:space="preserve">
<g>
	<g>
		<g>
			<path fill="#545454" d="M78.733,49.688H51.611c-0.835,0-1.67,0.624-1.67,1.668v27.123c0.209,1.046,0.835,1.67,1.67,1.67h27.122
				c0.836,0,1.671-0.624,1.671-1.67V51.355C80.404,50.521,79.778,49.688,78.733,49.688z M77.274,77.019H53.28V53.024h23.994V77.019z
				"/>
		</g>
	</g>
	<g>
		<g>
			<path fill="#545454" d="M27.408,68.047c-0.834,0-1.669,0.624-1.669,1.67v6.26c0,0.833,0.625,1.669,1.669,1.669
				s1.669-0.627,1.669-1.669v-6.26C29.077,68.671,28.451,68.047,27.408,68.047z"/>
		</g>
	</g>
	<path fill="#545454" d="M95.426,91.416H90.21V43.99c-1.117,0.603-2.206,1.258-3.339,1.833v45.802H43.474V51.564
		c0-0.834-0.626-1.67-1.669-1.67h-20.03c-0.835,0-1.67,0.627-1.67,1.67v40.061h-6.05V45.701c-0.909-0.605-1.88-0.969-2.921-1.091
		v47.015H5.708v-0.209c-0.835,0-1.46,0.624-1.46,1.67c0,0.833,0.625,1.669,1.46,1.669h89.717c0.835,0,1.669-0.627,1.669-1.669
		C97.095,92.25,96.47,91.416,95.426,91.416z M40.343,91.416h-16.9V53.024h16.9V91.416z"/>
	<path fill="#2AB0A1" d="M11.134,44.053v0.123c1.036,0.11,2.012,0.447,2.921,1.013v-0.092h0.208
		c0.833,0.208,1.877,0.417,2.921,0.417c4.799,0,8.972-2.713,11.058-6.677c2.086,3.964,6.259,6.677,11.058,6.677
		c4.799,0,8.973-2.713,11.06-6.677c2.085,3.964,6.258,6.677,11.058,6.677c4.799,0,9.182-2.713,11.267-6.886
		c2.087,4.173,6.26,6.886,11.267,6.886c1.044,0,1.879-0.209,2.921-0.417v0.247c1.607-0.834,3.135-1.819,4.795-2.556
		c0.07-0.031,0.139-0.021,0.195,0.007c3.043-2.275,5.026-5.911,5.026-10.008c0-0.208,0-0.625-0.209-0.834L81.03,6.08
		c-0.21-0.418-0.835-0.835-1.252-0.835H19.896c-0.626,0-1.042,0.417-1.46,0.835L4.456,31.952c-0.208,0.209-0.208,0.417-0.208,0.834
		C4.248,37.584,6.96,41.758,11.134,44.053z M61.625,42.175c-4.799,0-8.555-3.547-9.388-7.928h18.777
		C70.18,38.837,66.426,42.175,61.625,42.175z M84.16,42.175c-4.8,0-8.555-3.547-9.39-7.928h18.778
		C92.715,38.837,88.75,42.175,84.16,42.175z M78.526,8.375l13.771,22.743H74.561L66.634,8.375H78.526z M52.027,8.375h11.268
		l7.929,22.743H52.027V8.375z M39.509,42.175c-4.8,0-8.554-3.547-9.389-7.928h18.778C48.064,38.837,44.308,42.175,39.509,42.175z
		 M48.898,8.375v22.743H28.451L36.38,8.375H48.898z M20.731,8.375h12.31l-7.72,22.743h-16.9L20.731,8.375z M26.573,34.247
		c-0.834,4.59-4.59,7.928-9.389,7.928c-4.8,0-8.763-3.547-9.597-7.928H26.573z"/>
</g>
</svg>
