<?xml version="1.0" encoding="utf-8"?>
<!-- Generator: Adobe Illustrator 16.0.0, SVG Export Plug-In . SVG Version: 6.00 Build 0)  -->
<!DOCTYPE svg PUBLIC "-//W3C//DTD SVG 1.1//EN" "http://www.w3.org/Graphics/SVG/1.1/DTD/svg11.dtd">
<svg version="1.1" id="Layer_1" xmlns="http://www.w3.org/2000/svg" xmlns:xlink="http://www.w3.org/1999/xlink" x="0px" y="0px"
	 width="100px" height="100px" viewBox="0 0 100 100" enable-background="new 0 0 100 100" xml:space="preserve">
<g>
	<g>
		<g>
			<path fill="#545454" d="M30.548,46.266h-9.382c-0.74,0-1.341,0.602-1.341,1.34V61.01c0,0.742,0.601,1.342,1.341,1.342h9.382
				c0.742,0,1.341-0.6,1.341-1.342V47.606C31.889,46.868,31.29,46.266,30.548,46.266z M29.208,59.672h-6.702V48.947h6.702V59.672z"
				/>
		</g>
	</g>
	<g>
		<g>
			<path fill="#2AB0A1" d="M53.336,46.266h-9.383c-0.74,0-1.34,0.602-1.34,1.34V61.01c0,0.742,0.601,1.342,1.34,1.342h9.383
				c0.74,0,1.34-0.6,1.34-1.342V47.606C54.676,46.868,54.076,46.266,53.336,46.266z M51.994,59.672h-6.701V48.947h6.701V59.672z"/>
		</g>
	</g>
	<g>
		<g>
			<path fill="#2AB0A1" d="M53.336,67.713h-9.383c-0.74,0-1.34,0.602-1.34,1.342v13.402c0,0.74,0.601,1.342,1.34,1.342h9.383
				c0.74,0,1.34-0.602,1.34-1.342V69.055C54.676,68.314,54.076,67.713,53.336,67.713z M51.994,81.117h-6.701V70.395h6.701V81.117z"
				/>
		</g>
	</g>
	<g>
		<g>
			<path fill="#545454" d="M74.782,46.266h-9.384c-0.739,0-1.339,0.602-1.339,1.34V61.01c0,0.742,0.6,1.342,1.339,1.342h9.384
				c0.74,0,1.34-0.6,1.34-1.342V47.606C76.122,46.868,75.522,46.266,74.782,46.266z M73.442,59.672H66.74V48.947h6.702V59.672z"/>
		</g>
	</g>
	<g>
		<g>
			<path fill="#545454" d="M30.548,67.713h-9.382c-0.74,0-1.341,0.602-1.341,1.342v13.402c0,0.74,0.601,1.342,1.341,1.342h9.382
				c0.742,0,1.341-0.602,1.341-1.342V69.055C31.889,68.314,31.29,67.713,30.548,67.713z M29.208,81.117h-6.702V70.395h6.702V81.117z
				"/>
		</g>
	</g>
	<g>
		<g>
			<path fill="#545454" d="M74.782,67.713h-9.384c-0.739,0-1.339,0.602-1.339,1.342v13.402c0,0.74,0.6,1.342,1.339,1.342h9.384
				c0.74,0,1.34-0.602,1.34-1.342V69.055C76.122,68.314,75.522,67.713,74.782,67.713z M73.442,81.117H66.74V70.395h6.702V81.117z"/>
		</g>
	</g>
	<g>
		<g>
			<path fill="#545454" d="M82.825,87.818V42.246h1.341c0.739,0,1.341-0.601,1.341-1.341v-6.702c0-0.741-0.602-1.34-1.341-1.34
				h-1.341V27.5c0-0.739-0.6-1.34-1.34-1.34h-2.683V11.416c0-0.741-0.6-1.341-1.339-1.341H18.485c-0.741,0-1.341,0.6-1.341,1.341
				V26.16h-2.681c-0.74,0-1.341,0.6-1.341,1.34v5.362h-1.34c-0.741,0-1.341,0.6-1.341,1.34v6.702c0,0.74,0.6,1.339,1.341,1.339h1.34
				v45.574H7.762V90.5h6.702h67.021h6.713v-2.682H82.825L82.825,87.818z M19.825,12.756h56.297V26.16H19.825V12.756z M15.804,28.841
				h2.681h58.979h2.68v4.021H15.804V28.841z M80.144,87.818H15.804V42.246h64.339V87.818L80.144,87.818z M14.464,39.564h-1.341
				v-4.021h1.341h67.021h1.34v4.021h-1.34H14.464L14.464,39.564z"/>
		</g>
	</g>
	<g>
		<g>
			<path fill="#2AB0A1" d="M45.915,17.342c-0.211-0.545-0.511-1.016-0.897-1.412c-0.387-0.396-0.851-0.707-1.394-0.932
				c-0.543-0.226-1.145-0.338-1.803-0.338c-0.66,0-1.262,0.112-1.808,0.335c-0.544,0.223-1.01,0.533-1.399,0.932
				c-0.388,0.397-0.688,0.87-0.9,1.415c-0.214,0.544-0.321,1.137-0.321,1.776c0,0.639,0.107,1.231,0.321,1.776
				c0.212,0.544,0.513,1.017,0.9,1.414c0.389,0.398,0.855,0.709,1.399,0.932c0.546,0.223,1.148,0.335,1.808,0.335
				c0.658,0,1.26-0.112,1.803-0.335c0.543-0.223,1.007-0.534,1.394-0.932c0.386-0.397,0.686-0.87,0.897-1.414
				c0.214-0.545,0.321-1.137,0.321-1.776C46.236,18.479,46.128,17.887,45.915,17.342z M44.38,20.406
				c-0.128,0.38-0.309,0.702-0.546,0.965c-0.236,0.263-0.526,0.466-0.866,0.606c-0.34,0.142-0.722,0.211-1.148,0.211
				c-0.427,0-0.812-0.07-1.153-0.211c-0.342-0.14-0.633-0.343-0.872-0.606c-0.239-0.264-0.423-0.585-0.552-0.965
				c-0.128-0.38-0.192-0.809-0.192-1.288c0-0.478,0.064-0.907,0.192-1.288c0.129-0.38,0.313-0.703,0.552-0.968
				c0.238-0.266,0.529-0.469,0.872-0.609c0.341-0.141,0.726-0.211,1.153-0.211c0.426,0,0.808,0.071,1.148,0.211
				c0.34,0.141,0.629,0.343,0.866,0.609c0.238,0.265,0.418,0.588,0.546,0.968c0.127,0.38,0.189,0.81,0.189,1.288
				C44.569,19.597,44.507,20.026,44.38,20.406z"/>
		</g>
	</g>
	<g>
		<g>
			<polygon fill="#2AB0A1" points="34.473,14.758 34.473,18.509 30.383,18.509 30.383,14.758 28.749,14.758 28.749,23.479 
				30.383,23.479 30.383,19.667 34.473,19.667 34.473,23.479 36.108,23.479 36.108,14.758 			"/>
		</g>
	</g>
	<g>
		<g>
			<polygon fill="#2AB0A1" points="62.751,22.141 62.751,14.758 61.128,14.758 61.128,23.479 66.243,23.479 66.243,22.141 			"/>
		</g>
	</g>
	<g>
		<g>
			<polygon fill="#2AB0A1" points="46.307,14.758 46.307,16.09 48.943,16.09 48.943,23.479 50.565,23.479 50.565,16.09 
				53.189,16.09 53.189,14.758 			"/>
		</g>
	</g>
	<g>
		<g>
			<polygon fill="#2AB0A1" points="59.723,16.048 59.723,14.758 54.221,14.758 54.221,23.479 59.723,23.479 59.723,22.183 
				55.855,22.183 55.855,19.715 58.901,19.715 58.901,18.467 55.855,18.467 55.855,16.048 			"/>
		</g>
	</g>
</g>
</svg>
