<?xml version="1.0" encoding="utf-8"?>
<!-- Generator: Adobe Illustrator 16.0.0, SVG Export Plug-In . SVG Version: 6.00 Build 0)  -->
<!DOCTYPE svg PUBLIC "-//W3C//DTD SVG 1.1//EN" "http://www.w3.org/Graphics/SVG/1.1/DTD/svg11.dtd">
<svg version="1.1" id="Layer_1" xmlns="http://www.w3.org/2000/svg" xmlns:xlink="http://www.w3.org/1999/xlink" x="0px" y="0px"
	 width="100px" height="100px" viewBox="0 0 100 100" enable-background="new 0 0 100 100" xml:space="preserve">
<g>
	<g>
		<g>
			<path fill="#2AB0A1" d="M26.739,76.529c-0.277-0.275-0.661-0.434-1.053-0.434c-0.392,0-0.776,0.158-1.053,0.434
				c-0.277,0.279-0.437,0.662-0.437,1.057c0,0.391,0.16,0.773,0.437,1.053c0.277,0.277,0.661,0.436,1.053,0.436
				c0.392,0,0.774-0.158,1.053-0.436c0.277-0.279,0.437-0.662,0.437-1.053C27.176,77.191,27.017,76.809,26.739,76.529z"/>
			<path fill="#2AB0A1" d="M25.687,78.701c-0.294,0-0.581-0.119-0.789-0.326c-0.208-0.209-0.327-0.498-0.327-0.789
				c0-0.295,0.12-0.582,0.328-0.793c0.206-0.205,0.494-0.324,0.788-0.324s0.582,0.119,0.789,0.326
				c0.208,0.209,0.327,0.496,0.327,0.791c0,0.291-0.12,0.58-0.328,0.789C26.267,78.582,25.979,78.701,25.687,78.701z"/>
		</g>
	</g>
	<path fill="#545454" d="M76.763,36.994c-0.399,0-0.771-0.215-0.97-0.563c-3.302-5.786-8.86-10.12-15.253-11.891
		c-0.593-0.164-0.941-0.78-0.777-1.373c0.133-0.481,0.575-0.818,1.074-0.818c0.101,0,0.201,0.014,0.299,0.041
		c6.956,1.926,13.005,6.641,16.596,12.934c0.147,0.259,0.186,0.56,0.106,0.848c-0.078,0.287-0.264,0.527-0.523,0.675
		C77.146,36.944,76.956,36.994,76.763,36.994z"/>
	<path fill="#545454" d="M53.76,23.624c-0.616,0-1.117-0.5-1.117-1.115c0-0.616,0.501-1.116,1.116-1.116l0.157,0
		c0.298,0.002,0.576,0.119,0.787,0.332c0.209,0.212,0.323,0.493,0.322,0.791c-0.004,0.612-0.505,1.109-1.115,1.109L53.76,23.624z"/>
	<path fill="#2AB0A1" d="M52.643,44.308c-0.221,0-0.434-0.064-0.618-0.188c-0.73-0.486-7.138-4.873-7.138-9.07
		c0-2.817,2.226-5.11,4.962-5.11c0.913,0,1.811,0.261,2.595,0.756l0.199,0.125l0.199-0.125c0.785-0.495,1.683-0.756,2.596-0.756
		c2.736,0,4.962,2.292,4.962,5.11c0,4.192-6.407,8.583-7.138,9.07C53.078,44.244,52.863,44.308,52.643,44.308z M49.849,32.173
		c-1.506,0-2.731,1.291-2.731,2.877c0,2.527,4.418,5.956,5.303,6.618l0.224,0.166l0.223-0.166c2.445-1.814,5.301-4.636,5.302-6.618
		c0-1.587-1.226-2.877-2.731-2.877c-0.75,0-1.449,0.313-1.97,0.885c-0.212,0.231-0.512,0.363-0.825,0.363
		c-0.313,0-0.613-0.132-0.824-0.364C51.299,32.487,50.599,32.173,49.849,32.173z"/>
	<path fill="#545454" d="M59.475,82.762c-0.989,0-1.979-0.1-2.943-0.295l-21.178-4.305l-1.224-2.527l22.846,4.646
		c0.82,0.166,1.664,0.25,2.506,0.25c3.096,0,6.074-1.111,8.388-3.131l2.791-2.434c0.203-0.178,0.464-0.275,0.732-0.275
		c0.322,0,0.629,0.139,0.842,0.383c0.195,0.223,0.293,0.51,0.271,0.809c-0.02,0.297-0.154,0.568-0.379,0.766l-2.79,2.434
		C66.616,81.455,63.115,82.762,59.475,82.762z M56.157,72.541c-0.457,0-0.913-0.066-1.357-0.197l-8.609-2.527
		c-0.591-0.172-0.93-0.795-0.757-1.383c0.14-0.473,0.58-0.803,1.071-0.803c0.105,0,0.212,0.016,0.314,0.045l8.608,2.527
		c0.236,0.068,0.479,0.104,0.721,0.104c0.983,0,1.858-0.553,2.283-1.445c0.31-0.646,0.333-1.369,0.067-2.035
		c-0.268-0.666-0.782-1.174-1.453-1.428l-10.644-4.057c-1.131-0.432-2.315-0.65-3.52-0.65c-1.267,0-2.509,0.24-3.691,0.717
		l-10.004,4.025l-0.975-2.014l5.038-2.027l-0.14-0.721h-5.935l-6.37-0.594c-3.542-1.346-5.917-4.781-5.917-8.563
		c0-0.615,0.5-1.116,1.116-1.116h2.179l0.015-0.358c0.361-8.642,3.936-16.776,10.065-22.906c4.985-4.985,11.254-8.282,18.129-9.534
		l0.307-0.056v-1.118c0-3.277,2.666-5.944,5.943-5.944s5.944,2.667,5.944,5.944v1.118l0.307,0.056
		c6.875,1.251,13.144,4.549,18.13,9.534c6.129,6.13,9.704,14.265,10.064,22.906l0.016,0.358h2.179c0.615,0,1.115,0.5,1.115,1.116
		c0,3.787-2.385,7.231-5.936,8.571l-0.472,0.178l0.308,0.4c0.574,0.744,0.893,1.672,0.896,2.611c0.004,1.25-0.534,2.438-1.476,3.258
		l-4.342,3.789c-0.203,0.178-0.464,0.275-0.733,0.275l0,0c-0.322,0-0.629-0.139-0.841-0.383c-0.404-0.463-0.356-1.17,0.106-1.574
		l4.343-3.787c0.461-0.402,0.713-0.961,0.711-1.57c-0.002-0.611-0.258-1.166-0.721-1.566c-0.374-0.322-0.856-0.498-1.355-0.498
		c-0.453,0-0.883,0.143-1.242,0.41l-7.835,5.867c-2.936,2.199-6.573,3.41-10.243,3.41c-0.348,0-0.702-0.012-1.054-0.033
		l-0.705-0.043l-0.121,0.135C58.788,71.965,57.502,72.541,56.157,72.541z M52.813,61.396l5.028,1.916
		c1.241,0.473,2.235,1.451,2.729,2.686c0.284,0.709,0.393,1.49,0.313,2.26l-0.041,0.404l0.405,0.008
		c0.106,0.004,0.213,0.004,0.319,0.004c3.19,0,6.353-1.053,8.905-2.963l6.727-5.039H52.945L52.813,61.396z M17.3,53.089
		c0.735,3.151,3.51,5.353,6.747,5.353h57.192c3.237,0,6.012-2.201,6.746-5.353l0.107-0.458H17.193L17.3,53.089z M52.643,19.268
		c-17.265,0-31.413,13.503-32.21,30.74l-0.018,0.391h64.457l-0.018-0.391C84.057,32.771,69.907,19.268,52.643,19.268z
		 M52.643,17.037c1.094,0,2.204,0.053,3.305,0.157l0.408,0.039v-0.805c0-2.047-1.666-3.712-3.713-3.712s-3.712,1.666-3.712,3.712
		v0.805l0.409-0.039C50.438,17.089,51.55,17.037,52.643,17.037z"/>
	<path fill="#2AB0A1" d="M25.614,85.994c-0.432,0-0.817-0.242-1.005-0.631c-0.13-0.268-0.147-0.57-0.05-0.852
		c0.098-0.283,0.299-0.508,0.567-0.639l7.843-3.799l-8.636-17.83l-7.843,3.799c-0.153,0.074-0.316,0.111-0.485,0.111
		c-0.432,0-0.817-0.24-1.005-0.629c-0.269-0.555-0.036-1.223,0.518-1.49l6.405-3.104l4.456,0.416l8.665,17.889l0.479,1.021
		c0.072,0.227,0.069,0.477-0.009,0.701c-0.098,0.279-0.299,0.508-0.567,0.637L26.1,85.881
		C25.946,85.955,25.783,85.994,25.614,85.994z"/>
</g>
</svg>
