<?xml version="1.0" encoding="utf-8"?>
<!-- Generator: Adobe Illustrator 16.0.0, SVG Export Plug-In . SVG Version: 6.00 Build 0)  -->
<!DOCTYPE svg PUBLIC "-//W3C//DTD SVG 1.1//EN" "http://www.w3.org/Graphics/SVG/1.1/DTD/svg11.dtd">
<svg version="1.1" id="Layer_1" xmlns="http://www.w3.org/2000/svg" xmlns:xlink="http://www.w3.org/1999/xlink" x="0px" y="0px"
	 width="100px" height="100px" viewBox="0 0 100 100" enable-background="new 0 0 100 100" xml:space="preserve">
<path fill="#545454" d="M80.522,61.12c6.131,0,11.119-4.988,11.119-11.12c0-6.131-4.988-11.12-11.119-11.12
	c-6.132,0-11.121,4.989-11.121,11.12C69.401,56.132,74.391,61.12,80.522,61.12z M80.522,41.66c4.6,0,8.339,3.741,8.339,8.34
	c0,4.601-3.739,8.341-8.339,8.341s-8.341-3.74-8.341-8.341C72.182,45.401,75.923,41.66,80.522,41.66z"/>
<path fill="#545454" d="M19.362,61.12c6.131,0,11.12-4.988,11.12-11.12c0-6.131-4.989-11.12-11.12-11.12S8.242,43.869,8.242,50
	C8.242,56.132,13.23,61.12,19.362,61.12z M19.362,41.66c4.599,0,8.34,3.741,8.34,8.34c0,4.601-3.741,8.341-8.34,8.341
	c-4.6,0-8.34-3.74-8.34-8.341C11.021,45.401,14.762,41.66,19.362,41.66z"/>
<path fill="#2AB0A1" d="M49.942,61.12c6.131,0,11.121-4.988,11.121-11.12c0-6.131-4.989-11.12-11.121-11.12S38.822,43.869,38.822,50
	C38.822,56.132,43.811,61.12,49.942,61.12z M49.942,41.66c4.6,0,8.339,3.741,8.339,8.34c0,4.601-3.739,8.341-8.339,8.341
	c-4.6,0-8.34-3.74-8.34-8.341C41.602,45.401,45.342,41.66,49.942,41.66z"/>
</svg>
