<?xml version="1.0" encoding="utf-8"?>
<!-- Generator: Adobe Illustrator 16.0.0, SVG Export Plug-In . SVG Version: 6.00 Build 0)  -->
<!DOCTYPE svg PUBLIC "-//W3C//DTD SVG 1.1//EN" "http://www.w3.org/Graphics/SVG/1.1/DTD/svg11.dtd">
<svg version="1.1" id="Layer_1" xmlns="http://www.w3.org/2000/svg" xmlns:xlink="http://www.w3.org/1999/xlink" x="0px" y="0px"
	 width="100px" height="100px" viewBox="0 0 100 100" enable-background="new 0 0 100 100" xml:space="preserve">
<g>
	<g>
		<g>
			<path fill="#2AB0A1" d="M49.954,17.054c-3.857,0-6.995,3.138-6.995,6.996c0,3.857,3.137,6.995,6.995,6.995
				s6.996-3.137,6.996-6.995C56.95,20.191,53.812,17.054,49.954,17.054z M49.954,28.249c-2.314,0-4.2-1.885-4.2-4.2
				c0-2.315,1.886-4.201,4.2-4.201c2.314,0,4.199,1.885,4.199,4.201C54.153,26.364,52.269,28.249,49.954,28.249z"/>
		</g>
	</g>
	<g>
		<g>
			<path fill="#2AB0A1" d="M19.162,43.646v11.195h11.195V43.646H19.162z M27.562,52.03h-5.588v-5.589h5.588V52.03z"/>
		</g>
	</g>
	<g>
		<g>
			<path fill="#545454" d="M44.365,43.646v11.195h11.196V43.646H44.365z M52.748,52.03h-5.589v-5.589h5.589V52.03z"/>
		</g>
	</g>
	<g>
		<g>
			<path fill="#2AB0A1" d="M69.551,54.842h11.195V43.646H69.551V54.842z M72.345,46.441h5.59v5.589h-5.59V46.441z"/>
		</g>
	</g>
	<g>
		<g>
			<path fill="#545454" d="M19.162,70.222v11.196h11.195V70.222H19.162z M27.562,78.622h-5.588v-5.589h5.588V78.622z"/>
		</g>
	</g>
	<g>
		<g>
			<path fill="#545454" d="M69.551,81.418h11.195V70.222H69.551V81.418z M72.345,73.033h5.59v5.589h-5.59V73.033z"/>
		</g>
	</g>
	<rect x="51.36" y="66.037" fill="none" width="9.789" height="25.187"/>
	<rect x="38.758" y="66.037" fill="none" width="9.79" height="25.187"/>
	<polygon fill="none" points="33.169,38.04 13.572,38.04 13.572,91.207 35.964,91.207 35.964,63.226 63.944,63.226 63.944,91.224 
		86.336,91.224 86.354,91.224 86.354,38.04 66.757,38.04 	"/>
	<polygon fill="#2AB0A1" points="35.964,35.245 35.964,20.552 49.954,10.384 63.944,20.568 63.944,35.245 66.739,35.245 
		66.739,19.128 49.954,6.921 33.169,19.128 33.169,35.228 24.759,35.228 24.759,35.245 	"/>
	<polygon fill="none" points="33.169,38.04 13.572,38.04 13.572,91.207 34.972,91.207 34.972,59.976 66.739,59.976 66.739,91.224 
		86.336,91.224 86.354,91.224 86.354,38.04 66.757,38.04 	"/>
	<path fill="#545454" d="M89.132,91.224V35.245H72.247h-5.508h-2.795h-27.98H24.759v-0.017H10.777v55.979H6.577v2.812h86.755v-2.795
		H89.132z M86.354,91.224h-0.019H66.739h-2.795h-2.795H51.36h-2.812h-9.79h-3.787v-0.017H13.572V38.04h19.597h33.587h19.598V91.224z
		"/>
	<polygon fill="#2AB0A1" points="35.964,63.226 35.964,91.207 34.972,91.207 34.972,91.224 38.758,91.224 38.758,66.037 
		48.548,66.037 48.548,91.224 51.36,91.224 51.36,66.037 61.149,66.037 61.149,91.224 63.944,91.224 63.944,63.226 	"/>
</g>
</svg>
