<svg xmlns="http://www.w3.org/2000/svg" viewBox="0 0 20.763 24.5">
  <defs>
    <style>
      .cls-1 {
        fill: #767678;
      }
    </style>
  </defs>
  <g id="shopping-bag_3_" data-name="shopping-bag (3)" transform="translate(-15.358)">
    <g id="Group_111" data-name="Group 111" transform="translate(22.808)">
      <g id="Group_110" data-name="Group 110">
        <path id="Path_941" data-name="Path 941" class="cls-1" d="M83.019,3.027A3.53,3.53,0,0,0,76.673,1.45a.415.415,0,1,0,.67.49A2.7,2.7,0,0,1,82.2,3.145a.416.416,0,0,0,.411.357.444.444,0,0,0,.059,0A.415.415,0,0,0,83.019,3.027Z" transform="translate(-76.593)"/>
      </g>
    </g>
    <g id="Group_113" data-name="Group 113" transform="translate(16.189 5.398)">
      <g id="Group_112" data-name="Group 112">
        <path id="Path_942" data-name="Path 942" class="cls-1" d="M41.228,46.65l-1.246-2.076a.415.415,0,0,0-.356-.2H38.432a.415.415,0,1,0,0,.83h.959l.747,1.246h-16.8l.747-1.246h.44a.415.415,0,1,0,0-.83h-.675a.415.415,0,0,0-.356.2L22.244,46.65a.415.415,0,0,0,.356.629H40.871a.415.415,0,0,0,.356-.629Z" transform="translate(-22.185 -44.372)"/>
      </g>
    </g>
    <g id="Group_115" data-name="Group 115" transform="translate(26.306 2.327)">
      <g id="Group_114" data-name="Group 114" transform="translate(0)">
        <path id="Path_943" data-name="Path 943" class="cls-1" d="M112.2,20.646a.415.415,0,0,0-.258-.185l-5.661-1.324a.415.415,0,0,0-.5.31l-.427,1.825a.415.415,0,0,0,.809.189l.332-1.42,4.852,1.135-.762,3.26a.415.415,0,0,0,.31.5.42.42,0,0,0,.1.011.415.415,0,0,0,.4-.321l.857-3.664A.414.414,0,0,0,112.2,20.646Z" transform="translate(-105.343 -19.126)"/>
      </g>
    </g>
    <g id="Group_117" data-name="Group 117" transform="translate(17.808 1.262)">
      <g id="Group_116" data-name="Group 116" transform="translate(0)">
        <path id="Path_944" data-name="Path 944" class="cls-1" d="M43.645,13.94l-.378-3.2a.416.416,0,0,0-.461-.364l-6.945.821a.415.415,0,0,0-.364.461L36.128,17a.415.415,0,0,0,.412.367l.049,0a.416.416,0,0,0,.364-.461l-.582-4.925,6.121-.723.329,2.788a.415.415,0,0,0,.825-.1Z" transform="translate(-35.494 -10.374)"/>
      </g>
    </g>
    <g id="Group_119" data-name="Group 119" transform="translate(20.911 3.987)">
      <g id="Group_118" data-name="Group 118">
        <path id="Path_945" data-name="Path 945" class="cls-1" d="M69.33,36.515l-.824-3.428a.415.415,0,0,0-.5-.306l-6.69,1.609a.415.415,0,0,0-.307.5L61.42,36.6a.415.415,0,1,0,.807-.194l-.315-1.31,5.882-1.414.727,3.024a.415.415,0,0,0,.808-.194Z" transform="translate(-60.997 -32.769)"/>
      </g>
    </g>
    <g id="Group_121" data-name="Group 121" transform="translate(15.359 7.475)">
      <g id="Group_120" data-name="Group 120" transform="translate(0)">
        <path id="Path_946" data-name="Path 946" class="cls-1" d="M35.291,61.835a.415.415,0,0,0-.415-.394H16.6a.415.415,0,0,0-.415.394L15.359,78.03a.415.415,0,0,0,.415.437H35.706a.415.415,0,0,0,.415-.437Zm-19.08,15.8L17,62.271H34.481l.788,15.364Z" transform="translate(-15.359 -61.441)"/>
      </g>
    </g>
    <g id="Group_123" data-name="Group 123" transform="translate(27.609 9.136)">
      <g id="Group_122" data-name="Group 122">
        <path id="Path_947" data-name="Path 947" class="cls-1" d="M117.3,75.093a1.246,1.246,0,1,0,1.246,1.246A1.247,1.247,0,0,0,117.3,75.093Zm0,1.661a.415.415,0,1,1,.415-.415A.416.416,0,0,1,117.3,76.754Z" transform="translate(-116.052 -75.093)"/>
      </g>
    </g>
    <g id="Group_125" data-name="Group 125" transform="translate(21.38 9.136)">
      <g id="Group_124" data-name="Group 124" transform="translate(0)">
        <path id="Path_948" data-name="Path 948" class="cls-1" d="M66.1,75.093a1.246,1.246,0,1,0,1.246,1.246A1.247,1.247,0,0,0,66.1,75.093Zm0,1.661a.415.415,0,1,1,.415-.415A.416.416,0,0,1,66.1,76.754Z" transform="translate(-64.852 -75.093)"/>
      </g>
    </g>
    <g id="Group_127" data-name="Group 127" transform="translate(22.21 10.381)">
      <g id="Group_126" data-name="Group 126" transform="translate(0)">
        <path id="Path_949" data-name="Path 949" class="cls-1" d="M78.323,85.333h-.032a.415.415,0,0,0-.415.415.411.411,0,0,0,.032.16v2.124a2.7,2.7,0,1,1-5.4,0V85.748a.415.415,0,0,0-.83,0v2.284a3.53,3.53,0,0,0,7.059,0V85.748A.415.415,0,0,0,78.323,85.333Z" transform="translate(-71.679 -85.333)"/>
      </g>
    </g>
  </g>
</svg>
